<svg xmlns="http://www.w3.org/2000/svg" style="display:none">
<symbol id="ph-robot" xmlns="http://www.w3.org/2000/svg" viewBox="0 0 256 256" fill="currentColor"><path d="M200,48H136V16a8,8,0,0,0-16,0V48H56A32,32,0,0,0,24,80V192a32,32,0,0,0,32,32H200a32,32,0,0,0,32-32V80A32,32,0,0,0,200,48Zm16,144a16,16,0,0,1-16,16H56a16,16,0,0,1-16-16V80A16,16,0,0,1,56,64H200a16,16,0,0,1,16,16Zm-52-56H92a28,28,0,0,0,0,56h72a28,28,0,0,0,0-56Zm-24,16v24H116V152ZM80,164a12,12,0,0,1,12-12h8v24H92A12,12,0,0,1,80,164Zm84,12h-8V152h8a12,12,0,0,1,0,24ZM72,108a12,12,0,1,1,12,12A12,12,0,0,1,72,108Zm88,0a12,12,0,1,1,12,12A12,12,0,0,1,160,108Z"/></symbol>
<symbol id="ph-book-open" xmlns="http://www.w3.org/2000/svg" viewBox="0 0 256 256" fill="currentColor"><path d="M232,48H160a40,40,0,0,0-32,16A40,40,0,0,0,96,48H24a8,8,0,0,0-8,8V200a8,8,0,0,0,8,8H96a24,24,0,0,1,24,24,8,8,0,0,0,16,0,24,24,0,0,1,24-24h72a8,8,0,0,0,8-8V56A8,8,0,0,0,232,48ZM96,192H32V64H96a24,24,0,0,1,24,24V200A39.81,39.81,0,0,0,96,192Zm128,0H160a39.81,39.81,0,0,0-24,8V88a24,24,0,0,1,24-24h64Z"/></symbol>
<symbol id="ph-siren" xmlns="http://www.w3.org/2000/svg" viewBox="0 0 256 256" fill="currentColor"><path d="M120,16V8a8,8,0,0,1,16,0v8a8,8,0,0,1-16,0Zm80,32a8,8,0,0,0,5.66-2.34l8-8a8,8,0,0,0-11.32-11.32l-8,8A8,8,0,0,0,200,48ZM50.34,45.66A8,8,0,0,0,61.66,34.34l-8-8A8,8,0,0,0,42.34,37.66Zm87,26.45a8,8,0,1,0-2.64,15.78C153.67,91.08,168,108.32,168,128a8,8,0,0,0,16,0C184,100.6,163.93,76.57,137.32,72.11ZM232,176v24a16,16,0,0,1-16,16H40a16,16,0,0,1-16-16V176a16,16,0,0,1,16-16V128a88,88,0,0,1,88.67-88c48.15.36,87.33,40.29,87.33,89v31A16,16,0,0,1,232,176ZM56,160H200V129c0-40-32.05-72.71-71.45-73H128a72,72,0,0,0-72,72Zm160,40V176H40v24H216Z"/></symbol>
<symbol id="ph-package" xmlns="http://www.w3.org/2000/svg" viewBox="0 0 256 256" fill="currentColor"><path d="M223.68,66.15,135.68,18a15.88,15.88,0,0,0-15.36,0l-88,48.17a16,16,0,0,0-8.32,14v95.64a16,16,0,0,0,8.32,14l88,48.17a15.88,15.88,0,0,0,15.36,0l88-48.17a16,16,0,0,0,8.32-14V80.18A16,16,0,0,0,223.68,66.15ZM128,32l80.34,44-29.77,16.3-80.35-44ZM128,120,47.66,76l33.9-18.56,80.34,44ZM40,90l80,43.78v85.79L40,175.82Zm176,85.78h0l-80,43.79V133.82l32-17.51V152a8,8,0,0,0,16,0V107.55L216,90v85.77Z"/></symbol>
<symbol id="ph-notebook" xmlns="http://www.w3.org/2000/svg" viewBox="0 0 256 256" fill="currentColor"><path d="M184,112a8,8,0,0,1-8,8H112a8,8,0,0,1,0-16h64A8,8,0,0,1,184,112Zm-8,24H112a8,8,0,0,0,0,16h64a8,8,0,0,0,0-16Zm48-88V208a16,16,0,0,1-16,16H48a16,16,0,0,1-16-16V48A16,16,0,0,1,48,32H208A16,16,0,0,1,224,48ZM48,208H72V48H48Zm160,0V48H88V208H208Z"/></symbol>
<symbol id="ph-first-aid" xmlns="http://www.w3.org/2000/svg" viewBox="0 0 256 256" fill="currentColor"><path d="M216,88H168V40a16,16,0,0,0-16-16H104A16,16,0,0,0,88,40V88H40a16,16,0,0,0-16,16v48a16,16,0,0,0,16,16H88v48a16,16,0,0,0,16,16h48a16,16,0,0,0,16-16V168h48a16,16,0,0,0,16-16V104A16,16,0,0,0,216,88Zm0,64H160a8,8,0,0,0-8,8v56H104V160a8,8,0,0,0-8-8H40V104H96a8,8,0,0,0,8-8V40h48V96a8,8,0,0,0,8,8h56Z"/></symbol>
<symbol id="ph-map-trifold" xmlns="http://www.w3.org/2000/svg" viewBox="0 0 256 256" fill="currentColor"><path d="M228.92,49.69a8,8,0,0,0-6.86-1.45L160.93,63.52,99.58,32.84a8,8,0,0,0-5.52-.6l-64,16A8,8,0,0,0,24,56V200a8,8,0,0,0,9.94,7.76l61.13-15.28,61.35,30.68A8.15,8.15,0,0,0,160,224a8,8,0,0,0,1.94-.24l64-16A8,8,0,0,0,232,200V56A8,8,0,0,0,228.92,49.69ZM104,52.94l48,24V203.06l-48-24ZM40,62.25l48-12v127.5l-48,12Zm176,131.5-48,12V78.25l48-12Z"/></symbol>
<symbol id="ph-note" xmlns="http://www.w3.org/2000/svg" viewBox="0 0 256 256" fill="currentColor"><path d="M88,96a8,8,0,0,1,8-8h64a8,8,0,0,1,0,16H96A8,8,0,0,1,88,96Zm8,40h64a8,8,0,0,0,0-16H96a8,8,0,0,0,0,16Zm32,16H96a8,8,0,0,0,0,16h32a8,8,0,0,0,0-16ZM224,48V156.69A15.86,15.86,0,0,1,219.31,168L168,219.31A15.86,15.86,0,0,1,156.69,224H48a16,16,0,0,1-16-16V48A16,16,0,0,1,48,32H208A16,16,0,0,1,224,48ZM48,208H152V160a8,8,0,0,1,8-8h48V48H48Zm120-40v28.7L196.69,168Z"/></symbol>
<symbol id="ph-books" xmlns="http://www.w3.org/2000/svg" viewBox="0 0 256 256" fill="currentColor"><path d="M231.65,194.55,198.46,36.75a16,16,0,0,0-19-12.39L132.65,34.42a16.08,16.08,0,0,0-12.3,19l33.19,157.8A16,16,0,0,0,169.16,224a16.25,16.25,0,0,0,3.38-.36l46.81-10.06A16.09,16.09,0,0,0,231.65,194.55ZM136,50.15c0-.06,0-.09,0-.09l46.8-10,3.33,15.87L139.33,66Zm6.62,31.47,46.82-10.05,3.34,15.9L146,97.53Zm6.64,31.57,46.82-10.06,13.3,63.24-46.82,10.06ZM216,197.94l-46.8,10-3.33-15.87L212.67,182,216,197.85C216,197.91,216,197.94,216,197.94ZM104,32H56A16,16,0,0,0,40,48V208a16,16,0,0,0,16,16h48a16,16,0,0,0,16-16V48A16,16,0,0,0,104,32ZM56,48h48V64H56Zm0,32h48v96H56Zm48,128H56V192h48v16Z"/></symbol>
<symbol id="ph-game-controller" xmlns="http://www.w3.org/2000/svg" viewBox="0 0 256 256" fill="currentColor"><path d="M176,112H152a8,8,0,0,1,0-16h24a8,8,0,0,1,0,16ZM104,96H96V88a8,8,0,0,0-16,0v8H72a8,8,0,0,0,0,16h8v8a8,8,0,0,0,16,0v-8h8a8,8,0,0,0,0-16ZM241.48,200.65a36,36,0,0,1-54.94,4.81c-.12-.12-.24-.24-.35-.37L146.48,160h-37L69.81,205.09l-.35.37A36.08,36.08,0,0,1,44,216,36,36,0,0,1,8.56,173.75a.68.68,0,0,1,0-.14L24.93,89.52A59.88,59.88,0,0,1,83.89,40H172a60.08,60.08,0,0,1,59,49.25c0,.06,0,.12,0,.18l16.37,84.17a.68.68,0,0,1,0,.14A35.74,35.74,0,0,1,241.48,200.65ZM172,144a44,44,0,0,0,0-88H83.89A43.9,43.9,0,0,0,40.68,92.37l0,.13L24.3,176.59A20,20,0,0,0,58,194.3l41.92-47.59a8,8,0,0,1,6-2.71Zm59.7,32.59-8.74-45A60,60,0,0,1,172,160h-4.2L198,194.31a20.09,20.09,0,0,0,17.46,5.39,20,20,0,0,0,16.23-23.11Z"/></symbol>
<symbol id="ph-globe" xmlns="http://www.w3.org/2000/svg" viewBox="0 0 256 256" fill="currentColor"><path d="M128,24h0A104,104,0,1,0,232,128,104.12,104.12,0,0,0,128,24Zm88,104a87.61,87.61,0,0,1-3.33,24H174.16a157.44,157.44,0,0,0,0-48h38.51A87.61,87.61,0,0,1,216,128ZM102,168H154a115.11,115.11,0,0,1-26,45A115.27,115.27,0,0,1,102,168Zm-3.9-16a140.84,140.84,0,0,1,0-48h59.88a140.84,140.84,0,0,1,0,48ZM40,128a87.61,87.61,0,0,1,3.33-24H81.84a157.44,157.44,0,0,0,0,48H43.33A87.61,87.61,0,0,1,40,128ZM154,88H102a115.11,115.11,0,0,1,26-45A115.27,115.27,0,0,1,154,88Zm52.33,0H170.71a135.28,135.28,0,0,0-22.3-45.6A88.29,88.29,0,0,1,206.37,88ZM107.59,42.4A135.28,135.28,0,0,0,85.29,88H49.63A88.29,88.29,0,0,1,107.59,42.4ZM49.63,168H85.29a135.28,135.28,0,0,0,22.3,45.6A88.29,88.29,0,0,1,49.63,168Zm98.78,45.6a135.28,135.28,0,0,0,22.3-45.6h35.66A88.29,88.29,0,0,1,148.41,213.6Z"/></symbol>
<symbol id="ph-wrench" xmlns="http://www.w3.org/2000/svg" viewBox="0 0 256 256" fill="currentColor"><path d="M226.76,69a8,8,0,0,0-12.84-2.88l-40.3,37.19-17.23-3.7-3.7-17.23,37.19-40.3A8,8,0,0,0,187,29.24,72,72,0,0,0,88,96,72.34,72.34,0,0,0,94,124.94L33.79,177c-.15.12-.29.26-.43.39a32,32,0,0,0,45.26,45.26c.13-.13.27-.28.39-.42L131.06,162A72,72,0,0,0,232,96,71.56,71.56,0,0,0,226.76,69ZM160,152a56.14,56.14,0,0,1-27.07-7,8,8,0,0,0-9.92,1.77L67.11,211.51a16,16,0,0,1-22.62-22.62L109.18,133a8,8,0,0,0,1.77-9.93,56,56,0,0,1,58.36-82.31l-31.2,33.81a8,8,0,0,0-1.94,7.1L141.83,108a8,8,0,0,0,6.14,6.14l26.35,5.66a8,8,0,0,0,7.1-1.94l33.81-31.2A56.06,56.06,0,0,1,160,152Z"/></symbol>
<!-- ph-theater-masks: HTTP Error 404: Not Found -->
<symbol id="ph-speaker-high" xmlns="http://www.w3.org/2000/svg" viewBox="0 0 256 256" fill="currentColor"><path d="M155.51,24.81a8,8,0,0,0-8.42.88L77.25,80H32A16,16,0,0,0,16,96v64a16,16,0,0,0,16,16H77.25l69.84,54.31A8,8,0,0,0,160,224V32A8,8,0,0,0,155.51,24.81ZM32,96H72v64H32ZM144,207.64,88,164.09V91.91l56-43.55Zm54-106.08a40,40,0,0,1,0,52.88,8,8,0,0,1-12-10.58,24,24,0,0,0,0-31.72,8,8,0,0,1,12-10.58ZM248,128a79.9,79.9,0,0,1-20.37,53.34,8,8,0,0,1-11.92-10.67,64,64,0,0,0,0-85.33,8,8,0,1,1,11.92-10.67A79.83,79.83,0,0,1,248,128Z"/></symbol>
<symbol id="ph-file-text" xmlns="http://www.w3.org/2000/svg" viewBox="0 0 256 256" fill="currentColor"><path d="M213.66,82.34l-56-56A8,8,0,0,0,152,24H56A16,16,0,0,0,40,40V216a16,16,0,0,0,16,16H200a16,16,0,0,0,16-16V88A8,8,0,0,0,213.66,82.34ZM160,51.31,188.69,80H160ZM200,216H56V40h88V88a8,8,0,0,0,8,8h48V216Zm-32-80a8,8,0,0,1-8,8H96a8,8,0,0,1,0-16h64A8,8,0,0,1,168,136Zm0,32a8,8,0,0,1-8,8H96a8,8,0,0,1,0-16h64A8,8,0,0,1,168,168Z"/></symbol>
<symbol id="ph-table" xmlns="http://www.w3.org/2000/svg" viewBox="0 0 256 256" fill="currentColor"><path d="M224,48H32a8,8,0,0,0-8,8V192a16,16,0,0,0,16,16H216a16,16,0,0,0,16-16V56A8,8,0,0,0,224,48ZM40,112H80v32H40Zm56,0H216v32H96ZM216,64V96H40V64ZM40,160H80v32H40Zm176,32H96V160H216v32Z"/></symbol>
<symbol id="ph-monitor" xmlns="http://www.w3.org/2000/svg" viewBox="0 0 256 256" fill="currentColor"><path d="M208,40H48A24,24,0,0,0,24,64V176a24,24,0,0,0,24,24H208a24,24,0,0,0,24-24V64A24,24,0,0,0,208,40Zm8,136a8,8,0,0,1-8,8H48a8,8,0,0,1-8-8V64a8,8,0,0,1,8-8H208a8,8,0,0,1,8,8Zm-48,48a8,8,0,0,1-8,8H96a8,8,0,0,1,0-16h64A8,8,0,0,1,168,224Z"/></symbol>
<symbol id="ph-calculator" xmlns="http://www.w3.org/2000/svg" viewBox="0 0 256 256" fill="currentColor"><path d="M80,120h96a8,8,0,0,0,8-8V64a8,8,0,0,0-8-8H80a8,8,0,0,0-8,8v48A8,8,0,0,0,80,120Zm8-48h80v32H88ZM200,24H56A16,16,0,0,0,40,40V216a16,16,0,0,0,16,16H200a16,16,0,0,0,16-16V40A16,16,0,0,0,200,24Zm0,192H56V40H200ZM100,148a12,12,0,1,1-12-12A12,12,0,0,1,100,148Zm40,0a12,12,0,1,1-12-12A12,12,0,0,1,140,148Zm40,0a12,12,0,1,1-12-12A12,12,0,0,1,180,148Zm-80,40a12,12,0,1,1-12-12A12,12,0,0,1,100,188Zm40,0a12,12,0,1,1-12-12A12,12,0,0,1,140,188Zm40,0a12,12,0,1,1-12-12A12,12,0,0,1,180,188Z"/></symbol>
<symbol id="ph-timer" xmlns="http://www.w3.org/2000/svg" viewBox="0 0 256 256" fill="currentColor"><path d="M128,40a96,96,0,1,0,96,96A96.11,96.11,0,0,0,128,40Zm0,176a80,80,0,1,1,80-80A80.09,80.09,0,0,1,128,216ZM173.66,90.34a8,8,0,0,1,0,11.32l-40,40a8,8,0,0,1-11.32-11.32l40-40A8,8,0,0,1,173.66,90.34ZM96,16a8,8,0,0,1,8-8h48a8,8,0,0,1,0,16H104A8,8,0,0,1,96,16Z"/></symbol>
<symbol id="ph-arrows-left-right" xmlns="http://www.w3.org/2000/svg" viewBox="0 0 256 256" fill="currentColor"><path d="M213.66,181.66l-32,32a8,8,0,0,1-11.32-11.32L188.69,184H48a8,8,0,0,1,0-16H188.69l-18.35-18.34a8,8,0,0,1,11.32-11.32l32,32A8,8,0,0,1,213.66,181.66Zm-139.32-64a8,8,0,0,0,11.32-11.32L67.31,88H208a8,8,0,0,0,0-16H67.31L85.66,53.66A8,8,0,0,0,74.34,42.34l-32,32a8,8,0,0,0,0,11.32Z"/></symbol>
<symbol id="ph-check-square" xmlns="http://www.w3.org/2000/svg" viewBox="0 0 256 256" fill="currentColor"><path d="M173.66,98.34a8,8,0,0,1,0,11.32l-56,56a8,8,0,0,1-11.32,0l-24-24a8,8,0,0,1,11.32-11.32L112,148.69l50.34-50.35A8,8,0,0,1,173.66,98.34ZM224,48V208a16,16,0,0,1-16,16H48a16,16,0,0,1-16-16V48A16,16,0,0,1,48,32H208A16,16,0,0,1,224,48ZM208,208V48H48V208H208Z"/></symbol>
<symbol id="ph-radio" xmlns="http://www.w3.org/2000/svg" viewBox="0 0 256 256" fill="currentColor"><path d="M104,168a8,8,0,0,1-8,8H64a8,8,0,0,1,0-16H96A8,8,0,0,1,104,168Zm-8-40H64a8,8,0,0,0,0,16H96a8,8,0,0,0,0-16Zm0-32H64a8,8,0,0,0,0,16H96a8,8,0,0,0,0-16ZM232,80V192a16,16,0,0,1-16,16H40a16,16,0,0,1-16-16V72a8,8,0,0,1,5.7-7.66l160-48a8,8,0,0,1,4.6,15.33L86.51,64H216A16,16,0,0,1,232,80ZM216,192V80H40V192H216Zm-16-56a40,40,0,1,1-40-40A40,40,0,0,1,200,136Zm-16,0a24,24,0,1,0-24,24A24,24,0,0,0,184,136Z"/></symbol>
<symbol id="ph-broadcast" xmlns="http://www.w3.org/2000/svg" viewBox="0 0 256 256" fill="currentColor"><path d="M128,88a40,40,0,1,0,40,40A40,40,0,0,0,128,88Zm0,64a24,24,0,1,1,24-24A24,24,0,0,1,128,152Zm73.71,7.14a80,80,0,0,1-14.08,22.2,8,8,0,0,1-11.92-10.67,63.95,63.95,0,0,0,0-85.33,8,8,0,1,1,11.92-10.67,80.08,80.08,0,0,1,14.08,84.47ZM69,103.09a64,64,0,0,0,11.26,67.58,8,8,0,0,1-11.92,10.67,79.93,79.93,0,0,1,0-106.67A8,8,0,1,1,80.29,85.34,63.77,63.77,0,0,0,69,103.09ZM248,128a119.58,119.58,0,0,1-34.29,84,8,8,0,1,1-11.42-11.2,103.9,103.9,0,0,0,0-145.56A8,8,0,1,1,213.71,44,119.58,119.58,0,0,1,248,128ZM53.71,200.78A8,8,0,1,1,42.29,212a119.87,119.87,0,0,1,0-168,8,8,0,1,1,11.42,11.2,103.9,103.9,0,0,0,0,145.56Z"/></symbol>
<symbol id="ph-microphone" xmlns="http://www.w3.org/2000/svg" viewBox="0 0 256 256" fill="currentColor"><path d="M128,176a48.05,48.05,0,0,0,48-48V64a48,48,0,0,0-96,0v64A48.05,48.05,0,0,0,128,176ZM96,64a32,32,0,0,1,64,0v64a32,32,0,0,1-64,0Zm40,143.6V240a8,8,0,0,1-16,0V207.6A80.11,80.11,0,0,1,48,128a8,8,0,0,1,16,0,64,64,0,0,0,128,0,8,8,0,0,1,16,0A80.11,80.11,0,0,1,136,207.6Z"/></symbol>
<symbol id="ph-sun" xmlns="http://www.w3.org/2000/svg" viewBox="0 0 256 256" fill="currentColor"><path d="M120,40V16a8,8,0,0,1,16,0V40a8,8,0,0,1-16,0Zm72,88a64,64,0,1,1-64-64A64.07,64.07,0,0,1,192,128Zm-16,0a48,48,0,1,0-48,48A48.05,48.05,0,0,0,176,128ZM58.34,69.66A8,8,0,0,0,69.66,58.34l-16-16A8,8,0,0,0,42.34,53.66Zm0,116.68-16,16a8,8,0,0,0,11.32,11.32l16-16a8,8,0,0,0-11.32-11.32ZM192,72a8,8,0,0,0,5.66-2.34l16-16a8,8,0,0,0-11.32-11.32l-16,16A8,8,0,0,0,192,72Zm5.66,114.34a8,8,0,0,0-11.32,11.32l16,16a8,8,0,0,0,11.32-11.32ZM48,128a8,8,0,0,0-8-8H16a8,8,0,0,0,0,16H40A8,8,0,0,0,48,128Zm80,80a8,8,0,0,0-8,8v24a8,8,0,0,0,16,0V216A8,8,0,0,0,128,208Zm112-88H216a8,8,0,0,0,0,16h24a8,8,0,0,0,0-16Z"/></symbol>
<symbol id="ph-drop" xmlns="http://www.w3.org/2000/svg" viewBox="0 0 256 256" fill="currentColor"><path d="M174,47.75a254.19,254.19,0,0,0-41.45-38.3,8,8,0,0,0-9.18,0A254.19,254.19,0,0,0,82,47.75C54.51,79.32,40,112.6,40,144a88,88,0,0,0,176,0C216,112.6,201.49,79.32,174,47.75ZM128,216a72.08,72.08,0,0,1-72-72c0-57.23,55.47-105,72-118,16.53,13,72,60.75,72,118A72.08,72.08,0,0,1,128,216Zm55.89-62.66a57.6,57.6,0,0,1-46.56,46.55A8.75,8.75,0,0,1,136,200a8,8,0,0,1-1.32-15.89c16.57-2.79,30.63-16.85,33.44-33.45a8,8,0,0,1,15.78,2.68Z"/></symbol>
<symbol id="ph-music-notes" xmlns="http://www.w3.org/2000/svg" viewBox="0 0 256 256" fill="currentColor"><path d="M212.92,17.69a8,8,0,0,0-6.86-1.45l-128,32A8,8,0,0,0,72,56V166.08A36,36,0,1,0,88,196V110.25l112-28v51.83A36,36,0,1,0,216,164V24A8,8,0,0,0,212.92,17.69ZM52,216a20,20,0,1,1,20-20A20,20,0,0,1,52,216ZM88,93.75V62.25l112-28v31.5ZM180,184a20,20,0,1,1,20-20A20,20,0,0,1,180,184Z"/></symbol>
<symbol id="ph-clipboard-text" xmlns="http://www.w3.org/2000/svg" viewBox="0 0 256 256" fill="currentColor"><path d="M168,152a8,8,0,0,1-8,8H96a8,8,0,0,1,0-16h64A8,8,0,0,1,168,152Zm-8-40H96a8,8,0,0,0,0,16h64a8,8,0,0,0,0-16Zm56-64V216a16,16,0,0,1-16,16H56a16,16,0,0,1-16-16V48A16,16,0,0,1,56,32H92.26a47.92,47.92,0,0,1,71.48,0H200A16,16,0,0,1,216,48ZM96,64h64a32,32,0,0,0-64,0ZM200,48H173.25A47.93,47.93,0,0,1,176,64v8a8,8,0,0,1-8,8H88a8,8,0,0,1-8-8V64a47.93,47.93,0,0,1,2.75-16H56V216H200Z"/></symbol>
<symbol id="ph-folder-open" xmlns="http://www.w3.org/2000/svg" viewBox="0 0 256 256" fill="currentColor"><path d="M245,110.64A16,16,0,0,0,232,104H216V88a16,16,0,0,0-16-16H130.67L102.94,51.2a16.14,16.14,0,0,0-9.6-3.2H40A16,16,0,0,0,24,64V208h0a8,8,0,0,0,8,8H211.1a8,8,0,0,0,7.59-5.47l28.49-85.47A16.05,16.05,0,0,0,245,110.64ZM93.34,64,123.2,86.4A8,8,0,0,0,128,88h72v16H69.77a16,16,0,0,0-15.18,10.94L40,158.7V64Zm112,136H43.1l26.67-80H232Z"/></symbol>
<symbol id="ph-paint-brush" xmlns="http://www.w3.org/2000/svg" viewBox="0 0 256 256" fill="currentColor"><path d="M232,32a8,8,0,0,0-8-8c-44.08,0-89.31,49.71-114.43,82.63A60,60,0,0,0,32,164c0,30.88-19.54,44.73-20.47,45.37A8,8,0,0,0,16,224H92a60,60,0,0,0,57.37-77.57C182.3,121.31,232,76.08,232,32ZM92,208H34.63C41.38,198.41,48,183.92,48,164a44,44,0,1,1,44,44Zm32.42-94.45q5.14-6.66,10.09-12.55A76.23,76.23,0,0,1,155,121.49q-5.9,4.94-12.55,10.09A60.54,60.54,0,0,0,124.42,113.55Zm42.7-2.68a92.57,92.57,0,0,0-22-22c31.78-34.53,55.75-45,69.9-47.91C212.17,55.12,201.65,79.09,167.12,110.87Z"/></symbol>
<symbol id="ph-image" xmlns="http://www.w3.org/2000/svg" viewBox="0 0 256 256" fill="currentColor"><path d="M216,40H40A16,16,0,0,0,24,56V200a16,16,0,0,0,16,16H216a16,16,0,0,0,16-16V56A16,16,0,0,0,216,40Zm0,16V158.75l-26.07-26.06a16,16,0,0,0-22.63,0l-20,20-44-44a16,16,0,0,0-22.62,0L40,149.37V56ZM40,172l52-52,80,80H40Zm176,28H194.63l-36-36,20-20L216,181.38V200ZM144,100a12,12,0,1,1,12,12A12,12,0,0,1,144,100Z"/></symbol>
<symbol id="ph-book-bookmark" xmlns="http://www.w3.org/2000/svg" viewBox="0 0 256 256" fill="currentColor"><path d="M208,24H72A32,32,0,0,0,40,56V224a8,8,0,0,0,8,8H192a8,8,0,0,0,0-16H56a16,16,0,0,1,16-16H208a8,8,0,0,0,8-8V32A8,8,0,0,0,208,24ZM120,40h48v72L148.79,97.6a8,8,0,0,0-9.6,0L120,112Zm80,144H72a31.82,31.82,0,0,0-16,4.29V56A16,16,0,0,1,72,40h32v88a8,8,0,0,0,12.8,6.4L144,114l27.21,20.4A8,8,0,0,0,176,136a8,8,0,0,0,8-8V40h16Z"/></symbol>
<symbol id="ph-brain" xmlns="http://www.w3.org/2000/svg" viewBox="0 0 256 256" fill="currentColor"><path d="M248,124a56.11,56.11,0,0,0-32-50.61V72a48,48,0,0,0-88-26.49A48,48,0,0,0,40,72v1.39a56,56,0,0,0,0,101.2V176a48,48,0,0,0,88,26.49A48,48,0,0,0,216,176v-1.41A56.09,56.09,0,0,0,248,124ZM88,208a32,32,0,0,1-31.81-28.56A55.87,55.87,0,0,0,64,180h8a8,8,0,0,0,0-16H64A40,40,0,0,1,50.67,86.27,8,8,0,0,0,56,78.73V72a32,32,0,0,1,64,0v68.26A47.8,47.8,0,0,0,88,128a8,8,0,0,0,0,16,32,32,0,0,1,0,64Zm104-44h-8a8,8,0,0,0,0,16h8a55.87,55.87,0,0,0,7.81-.56A32,32,0,1,1,168,144a8,8,0,0,0,0-16,47.8,47.8,0,0,0-32,12.26V72a32,32,0,0,1,64,0v6.73a8,8,0,0,0,5.33,7.54A40,40,0,0,1,192,164Zm16-52a8,8,0,0,1-8,8h-4a36,36,0,0,1-36-36V80a8,8,0,0,1,16,0v4a20,20,0,0,0,20,20h4A8,8,0,0,1,208,112ZM60,120H56a8,8,0,0,1,0-16h4A20,20,0,0,0,80,84V80a8,8,0,0,1,16,0v4A36,36,0,0,1,60,120Z"/></symbol>
<symbol id="ph-robot" xmlns="http://www.w3.org/2000/svg" viewBox="0 0 256 256" fill="currentColor"><path d="M200,48H136V16a8,8,0,0,0-16,0V48H56A32,32,0,0,0,24,80V192a32,32,0,0,0,32,32H200a32,32,0,0,0,32-32V80A32,32,0,0,0,200,48Zm16,144a16,16,0,0,1-16,16H56a16,16,0,0,1-16-16V80A16,16,0,0,1,56,64H200a16,16,0,0,1,16,16Zm-52-56H92a28,28,0,0,0,0,56h72a28,28,0,0,0,0-56Zm-24,16v24H116V152ZM80,164a12,12,0,0,1,12-12h8v24H92A12,12,0,0,1,80,164Zm84,12h-8V152h8a12,12,0,0,1,0,24ZM72,108a12,12,0,1,1,12,12A12,12,0,0,1,72,108Zm88,0a12,12,0,1,1,12,12A12,12,0,0,1,160,108Z"/></symbol>
<symbol id="ph-cloud-sun" xmlns="http://www.w3.org/2000/svg" viewBox="0 0 256 256" fill="currentColor"><path d="M164,72a76.2,76.2,0,0,0-20.26,2.73,55.63,55.63,0,0,0-9.41-11.54l9.51-13.57a8,8,0,1,0-13.11-9.18L121.22,54A55.9,55.9,0,0,0,96,48c-.58,0-1.16,0-1.74,0L91.37,31.71a8,8,0,1,0-15.75,2.77L78.5,50.82A56.1,56.1,0,0,0,55.23,65.67L41.61,56.14a8,8,0,1,0-9.17,13.11L46,78.77A55.55,55.55,0,0,0,40,104c0,.57,0,1.15,0,1.72L23.71,108.6a8,8,0,0,0,1.38,15.88,8.24,8.24,0,0,0,1.39-.12l16.32-2.88a55.74,55.74,0,0,0,5.86,12.42A52,52,0,0,0,84,224h80a76,76,0,0,0,0-152ZM56,104a40,40,0,0,1,72.54-23.24,76.26,76.26,0,0,0-35.62,40,52.14,52.14,0,0,0-31,4.17A40,40,0,0,1,56,104ZM164,208H84a36,36,0,1,1,4.78-71.69c-.37,2.37-.63,4.79-.77,7.23a8,8,0,0,0,16,.92,58.91,58.91,0,0,1,1.88-11.81c0-.16.09-.32.12-.48A60.06,60.06,0,1,1,164,208Z"/></symbol>
<symbol id="ph-usb" xmlns="http://www.w3.org/2000/svg" viewBox="0 0 256 256" fill="currentColor"><path d="M252.44,121.34l-48-32A8,8,0,0,0,192,96v24H72V72h33a32,32,0,1,0,0-16H72A16,16,0,0,0,56,72v48H8a8,8,0,0,0,0,16H56v48a16,16,0,0,0,16,16h32v8a16,16,0,0,0,16,16h32a16,16,0,0,0,16-16V176a16,16,0,0,0-16-16H120a16,16,0,0,0-16,16v8H72V136H192v24a8,8,0,0,0,12.44,6.66l48-32a8,8,0,0,0,0-13.32ZM136,48a16,16,0,1,1-16,16A16,16,0,0,1,136,48ZM120,176h32v32H120Zm88-30.95V111l25.58,17Z"/></symbol>
<symbol id="ph-lock-key" xmlns="http://www.w3.org/2000/svg" viewBox="0 0 256 256" fill="currentColor"><path d="M128,112a28,28,0,0,0-8,54.83V184a8,8,0,0,0,16,0V166.83A28,28,0,0,0,128,112Zm0,40a12,12,0,1,1,12-12A12,12,0,0,1,128,152Zm80-72H176V56a48,48,0,0,0-96,0V80H48A16,16,0,0,0,32,96V208a16,16,0,0,0,16,16H208a16,16,0,0,0,16-16V96A16,16,0,0,0,208,80ZM96,56a32,32,0,0,1,64,0V80H96ZM208,208H48V96H208V208Z"/></symbol>
<symbol id="ph-fork-knife" xmlns="http://www.w3.org/2000/svg" viewBox="0 0 256 256" fill="currentColor"><path d="M72,88V40a8,8,0,0,1,16,0V88a8,8,0,0,1-16,0ZM216,40V224a8,8,0,0,1-16,0V176H152a8,8,0,0,1-8-8,268.75,268.75,0,0,1,7.22-56.88c9.78-40.49,28.32-67.63,53.63-78.47A8,8,0,0,1,216,40ZM200,53.9c-32.17,24.57-38.47,84.42-39.7,106.1H200ZM119.89,38.69a8,8,0,1,0-15.78,2.63L112,88.63a32,32,0,0,1-64,0l7.88-47.31a8,8,0,1,0-15.78-2.63l-8,48A8.17,8.17,0,0,0,32,88a48.07,48.07,0,0,0,40,47.32V224a8,8,0,0,0,16,0V135.32A48.07,48.07,0,0,0,128,88a8.17,8.17,0,0,0-.11-1.31Z"/></symbol>
<symbol id="ph-plant" xmlns="http://www.w3.org/2000/svg" viewBox="0 0 256 256" fill="currentColor"><path d="M247.63,47.89a8,8,0,0,0-7.52-7.52c-51.76-3-93.32,12.74-111.18,42.22-11.8,19.49-11.78,43.16-.16,65.74a71.34,71.34,0,0,0-14.17,27L98.33,159c7.82-16.33,7.52-33.35-1-47.49-13.2-21.79-43.67-33.47-81.5-31.25a8,8,0,0,0-7.52,7.52c-2.23,37.83,9.46,68.3,31.25,81.5A45.82,45.82,0,0,0,63.44,176,54.58,54.58,0,0,0,87,170.33l25,25V224a8,8,0,0,0,16,0V194.51a55.61,55.61,0,0,1,12.27-35,73.91,73.91,0,0,0,33.31,8.4,60.9,60.9,0,0,0,31.83-8.86C234.89,141.21,250.67,99.65,247.63,47.89ZM47.81,155.6C32.47,146.31,23.79,124.32,24,96c28.32-.24,50.31,8.47,59.6,23.81,4.85,8,5.64,17.33,2.46,26.94L61.65,122.34a8,8,0,0,0-11.31,11.31l24.41,24.41C65.14,161.24,55.82,160.45,47.81,155.6Zm149.31-10.22c-13.4,8.11-29.15,8.73-45.15,2l53.69-53.7a8,8,0,0,0-11.31-11.31L140.65,136c-6.76-16-6.15-31.76,2-45.15,13.94-23,47-35.82,89.33-34.83C232.94,98.34,220.14,131.44,197.12,145.38Z"/></symbol>
<symbol id="ph-compass" xmlns="http://www.w3.org/2000/svg" viewBox="0 0 256 256" fill="currentColor"><path d="M128,24A104,104,0,1,0,232,128,104.11,104.11,0,0,0,128,24Zm0,192a88,88,0,1,1,88-88A88.1,88.1,0,0,1,128,216ZM172.42,72.84l-64,32a8.05,8.05,0,0,0-3.58,3.58l-32,64A8,8,0,0,0,80,184a8.1,8.1,0,0,0,3.58-.84l64-32a8.05,8.05,0,0,0,3.58-3.58l32-64a8,8,0,0,0-10.74-10.74ZM138,138,97.89,158.11,118,118l40.15-20.07Z"/></symbol>
<symbol id="ph-pill" xmlns="http://www.w3.org/2000/svg" viewBox="0 0 256 256" fill="currentColor"><path d="M216.42,39.6a53.26,53.26,0,0,0-75.32,0L39.6,141.09a53.26,53.26,0,0,0,75.32,75.31h0L216.43,114.91A53.31,53.31,0,0,0,216.42,39.6ZM103.61,205.09h0a37.26,37.26,0,0,1-52.7-52.69L96,107.31,148.7,160ZM205.11,103.6,160,148.69,107.32,96l45.1-45.09a37.26,37.26,0,0,1,52.69,52.69ZM189.68,82.34a8,8,0,0,1,0,11.32l-24,24a8,8,0,1,1-11.31-11.32l24-24A8,8,0,0,1,189.68,82.34Z"/></symbol>
<symbol id="ph-tent" xmlns="http://www.w3.org/2000/svg" viewBox="0 0 256 256" fill="currentColor"><path d="M255.31,188.75l-64-144A8,8,0,0,0,184,40H72a8,8,0,0,0-7.27,4.69.21.21,0,0,0,0,.06l0,.12,0,0L.69,188.75A8,8,0,0,0,8,200H248a8,8,0,0,0,7.31-11.25ZM64,184H20.31L64,85.7Zm16,0V85.7L123.69,184Zm61.2,0L84.31,56H178.8l56.89,128Z"/></symbol>
<symbol id="ph-lightning" xmlns="http://www.w3.org/2000/svg" viewBox="0 0 256 256" fill="currentColor"><path d="M215.79,118.17a8,8,0,0,0-5-5.66L153.18,90.9l14.66-73.33a8,8,0,0,0-13.69-7l-112,120a8,8,0,0,0,3,13l57.63,21.61L88.16,238.43a8,8,0,0,0,13.69,7l112-120A8,8,0,0,0,215.79,118.17ZM109.37,214l10.47-52.38a8,8,0,0,0-5-9.06L62,132.71l84.62-90.66L136.16,94.43a8,8,0,0,0,5,9.06l52.8,19.8Z"/></symbol>
<symbol id="ph-gear" xmlns="http://www.w3.org/2000/svg" viewBox="0 0 256 256" fill="currentColor"><path d="M128,80a48,48,0,1,0,48,48A48.05,48.05,0,0,0,128,80Zm0,80a32,32,0,1,1,32-32A32,32,0,0,1,128,160Zm88-29.84q.06-2.16,0-4.32l14.92-18.64a8,8,0,0,0,1.48-7.06,107.21,107.21,0,0,0-10.88-26.25,8,8,0,0,0-6-3.93l-23.72-2.64q-1.48-1.56-3-3L186,40.54a8,8,0,0,0-3.94-6,107.71,107.71,0,0,0-26.25-10.87,8,8,0,0,0-7.06,1.49L130.16,40Q128,40,125.84,40L107.2,25.11a8,8,0,0,0-7.06-1.48A107.6,107.6,0,0,0,73.89,34.51a8,8,0,0,0-3.93,6L67.32,64.27q-1.56,1.49-3,3L40.54,70a8,8,0,0,0-6,3.94,107.71,107.71,0,0,0-10.87,26.25,8,8,0,0,0,1.49,7.06L40,125.84Q40,128,40,130.16L25.11,148.8a8,8,0,0,0-1.48,7.06,107.21,107.21,0,0,0,10.88,26.25,8,8,0,0,0,6,3.93l23.72,2.64q1.49,1.56,3,3L70,215.46a8,8,0,0,0,3.94,6,107.71,107.71,0,0,0,26.25,10.87,8,8,0,0,0,7.06-1.49L125.84,216q2.16.06,4.32,0l18.64,14.92a8,8,0,0,0,7.06,1.48,107.21,107.21,0,0,0,26.25-10.88,8,8,0,0,0,3.93-6l2.64-23.72q1.56-1.48,3-3L215.46,186a8,8,0,0,0,6-3.94,107.71,107.71,0,0,0,10.87-26.25,8,8,0,0,0-1.49-7.06Zm-16.1-6.5a73.93,73.93,0,0,1,0,8.68,8,8,0,0,0,1.74,5.48l14.19,17.73a91.57,91.57,0,0,1-6.23,15L187,173.11a8,8,0,0,0-5.1,2.64,74.11,74.11,0,0,1-6.14,6.14,8,8,0,0,0-2.64,5.1l-2.51,22.58a91.32,91.32,0,0,1-15,6.23l-17.74-14.19a8,8,0,0,0-5-1.75h-.48a73.93,73.93,0,0,1-8.68,0,8,8,0,0,0-5.48,1.74L100.45,215.8a91.57,91.57,0,0,1-15-6.23L82.89,187a8,8,0,0,0-2.64-5.1,74.11,74.11,0,0,1-6.14-6.14,8,8,0,0,0-5.1-2.64L46.43,170.6a91.32,91.32,0,0,1-6.23-15l14.19-17.74a8,8,0,0,0,1.74-5.48,73.93,73.93,0,0,1,0-8.68,8,8,0,0,0-1.74-5.48L40.2,100.45a91.57,91.57,0,0,1,6.23-15L69,82.89a8,8,0,0,0,5.1-2.64,74.11,74.11,0,0,1,6.14-6.14A8,8,0,0,0,82.89,69L85.4,46.43a91.32,91.32,0,0,1,15-6.23l17.74,14.19a8,8,0,0,0,5.48,1.74,73.93,73.93,0,0,1,8.68,0,8,8,0,0,0,5.48-1.74L155.55,40.2a91.57,91.57,0,0,1,15,6.23L173.11,69a8,8,0,0,0,2.64,5.1,74.11,74.11,0,0,1,6.14,6.14,8,8,0,0,0,5.1,2.64l22.58,2.51a91.32,91.32,0,0,1,6.23,15l-14.19,17.74A8,8,0,0,0,199.87,123.66Z"/></symbol>
<symbol id="ph-download-simple" xmlns="http://www.w3.org/2000/svg" viewBox="0 0 256 256" fill="currentColor"><path d="M224,144v64a8,8,0,0,1-8,8H40a8,8,0,0,1-8-8V144a8,8,0,0,1,16,0v56H208V144a8,8,0,0,1,16,0Zm-101.66,5.66a8,8,0,0,0,11.32,0l40-40a8,8,0,0,0-11.32-11.32L136,124.69V32a8,8,0,0,0-16,0v92.69L93.66,98.34a8,8,0,0,0-11.32,11.32Z"/></symbol>
</svg>